<svg xmlns="http://www.w3.org/2000/svg" viewBox="0 0 210.82 175.28"><defs><style>.cls-1{isolation:isolate;}.cls-2{fill:#0f7255;}.cls-3{fill:#0a442e;}.cls-4{fill:none;stroke:#fff;stroke-miterlimit:10;mix-blend-mode:soft-light;}</style></defs><g class="cls-1"><g id="Layer_1" data-name="Layer 1"><path class="cls-2" d="M304,68c6.4-.36,8.8-33.63-3.58-51q8.34,1.2,16.57,3.14V181.89H248.41s-12.28-2.38-31.3-12.68c9.89-6.91,39.86-29.26,33-42-6.38-11.83-33.8,17.42-58.78,25.39a275.08,275.08,0,0,1-39.49-36.23c9.52-3.19,36.63-13.87,30-30.16-5.15-12.67-33.75-5.54-53.46,1.15-7-9.68-14.07-20.34-21-32.07,0,0,21.23-11.11,53.3-21.69,11.94,9.33,43.9,32.19,59.71,23.3,13.1-7.37-5.5-24.08-19.39-34.44a330.09,330.09,0,0,1,48.06-7.11h0c9,3.82,23,11,30.35,20.93C290.69,51.61,296.63,68.42,304,68Z" transform="translate(-106.68 -6.61)"/><polygon class="cls-3" points="210.32 112.24 152.19 175.28 155.99 175.28 210.32 116.35 210.32 112.24"/><path class="cls-3" d="M244.08,15.79l-2.83.26,21.89,73.43c-6.95-2.48-13.93-4.78-20.87-6.91L224.44,18.12c-.93.14-1.85.3-2.77.45l17.44,63c-6.29-1.89-12.54-3.65-18.68-5.29l-4.75-17.7a19.8,19.8,0,0,1-2.81.3l4.45,16.58C206.06,72.55,195.18,70,185,67.9L177,45.19c-1.32-.83-2.6-1.68-3.85-2.51l8.7,24.55c-10.06-2.07-19.34-3.76-27.5-5.13l-12-21.94-2.63,1,11.17,20.35c-18.72-3.05-30.69-4.26-31.07-4.29a1.4,1.4,0,0,0-.27,2.78c.36,0,11.15,1.12,28.22,3.83L120,75.31c.53.79,1.06,1.58,1.6,2.36l31.4-13c8.1,1.35,17.35,3,27.4,5.08L169.1,79.35a29.59,29.59,0,0,1,3.72.5l11-9.36c10.06,2.11,20.85,4.59,32,7.49l-55.67,47.28,2,2,57-48.41c6.2,1.64,12.5,3.41,18.84,5.32l-61.8,56.22,2.13,1.84,62.78-57.11c7.13,2.19,14.31,4.55,21.46,7.1l-48.63,49.13c3.72-2.31,7.33-4.68,10.75-6.89l40.78-41.2q10,3.64,19.85,7.78l-34.51,33a22.81,22.81,0,0,1-3.06,6.79l40.36-38.61q7.91,3.41,15.54,7.17l-68.8,68.12c1,.39,2,.76,2.86,1.09l68.58-67.89c3.65,1.85,7.22,3.77,10.74,5.74v-3.22Q312.06,110.54,307,108l-6.61-41.15A17.07,17.07,0,0,1,297,63.53l6.89,42.91c-4.9-2.4-9.9-4.69-15-6.88L272.78,29.34q-1.69-1.43-3.5-2.75L285.74,98.2c-6.37-2.67-12.83-5.19-19.33-7.55Z" transform="translate(-106.68 -6.61)"/><path class="cls-3" d="M220.72,166.63l0,0,.21-.2Z" transform="translate(-106.68 -6.61)"/><path class="cls-4" d="M304,59.73c6.4-.36,8.8-33.63-3.58-51Q308.77,10,317,11.9V173.61H248.41s-12.28-2.38-31.3-12.68c9.89-6.91,39.86-29.26,33-42-6.38-11.82-33.8,17.43-58.78,25.4a275.08,275.08,0,0,1-39.49-36.23c9.52-3.19,36.63-13.87,30-30.16-5.15-12.67-33.75-5.54-53.46,1.15-7-9.68-14.07-20.34-21-32.07,0,0,21.23-11.11,53.3-21.69,11.94,9.33,43.9,32.19,59.71,23.3,13.1-7.37-5.5-24.08-19.39-34.44a328.74,328.74,0,0,1,48.06-7.11h0c9,3.81,23,11,30.35,20.93C290.69,43.33,296.63,60.14,304,59.73Z" transform="translate(-106.68 -6.61)"/></g></g></svg>